<svg xmlns="http://www.w3.org/2000/svg" version="1.1" xmlns:xlink="http://www.w3.org/1999/xlink" xmlns:svgjs="http://svgjs.dev/svgjs" width="52" height="50"><svg width="52" height="50" viewBox="0 0 52 50" fill="none" xmlns="http://www.w3.org/2000/svg">
<path d="M35.9735 46.258C33.7375 46.258 31.5875 45.8997 29.5235 45.183C27.4881 44.4377 25.9115 43.4917 24.7935 42.345L26.0405 39.894C27.1011 40.926 28.5201 41.8003 30.2975 42.517C32.1035 43.205 33.9955 43.549 35.9735 43.549C37.8655 43.549 39.3991 43.3197 40.5745 42.861C41.7785 42.3737 42.6528 41.7287 43.1975 40.926C43.7708 40.1233 44.0575 39.2347 44.0575 38.26C44.0575 37.0847 43.7135 36.1387 43.0255 35.422C42.3661 34.7053 41.4918 34.1463 40.4025 33.745C39.3131 33.315 38.1091 32.9423 36.7905 32.627C35.4718 32.3117 34.1531 31.982 32.8345 31.638C31.5158 31.2653 30.2975 30.778 29.1795 30.176C28.0901 29.574 27.2015 28.7857 26.5135 27.811C25.8541 26.8077 25.5245 25.5033 25.5245 23.898C25.5245 22.4073 25.9115 21.0457 26.6855 19.813C27.4881 18.5517 28.7065 17.5483 30.3405 16.803C31.9745 16.029 34.0671 15.642 36.6185 15.642C38.3098 15.642 39.9868 15.8857 41.6495 16.373C43.3121 16.8317 44.7455 17.4767 45.9495 18.308L44.8745 20.845C43.5845 19.985 42.2085 19.3543 40.7465 18.953C39.3131 18.5517 37.9228 18.351 36.5755 18.351C34.7695 18.351 33.2788 18.5947 32.1035 19.082C30.9281 19.5693 30.0538 20.2287 29.4805 21.06C28.9358 21.8627 28.6635 22.78 28.6635 23.812C28.6635 24.9873 28.9931 25.9333 29.6525 26.65C30.3405 27.3667 31.2291 27.9257 32.3185 28.327C33.4365 28.7283 34.6548 29.0867 35.9735 29.402C37.2921 29.7173 38.5965 30.0613 39.8865 30.434C41.2051 30.8067 42.4091 31.294 43.4985 31.896C44.6165 32.4693 45.5051 33.2433 46.1645 34.218C46.8525 35.1927 47.1965 36.4683 47.1965 38.045C47.1965 39.507 46.7951 40.8687 45.9925 42.13C45.1898 43.3627 43.9571 44.366 42.2945 45.14C40.6605 45.8853 38.5535 46.258 35.9735 46.258Z" fill="black"></path>
<path d="M7.83691 37H2.17285C2.04264 37 1.97754 36.9186 1.97754 36.7559L2.02637 2.40527C2.02637 2.27507 2.10775 2.20996 2.27051 2.20996H7.83691C7.99967 2.20996 8.08105 2.27507 8.08105 2.40527L8.03223 16.0039H15.5273V2.40527C15.5273 2.27507 15.5924 2.20996 15.7227 2.20996H21.2891C21.4518 2.20996 21.5332 2.27507 21.5332 2.40527L21.6309 36.7559C21.6309 36.9186 21.5495 37 21.3867 37H15.7715C15.6087 37 15.5273 36.9186 15.5273 36.7559V22.0586H8.03223V36.7559C8.03223 36.9186 7.96712 37 7.83691 37Z" fill="black"></path>
</svg><style>@media (prefers-color-scheme: light) { :root { filter: none; } }
@media (prefers-color-scheme: dark) { :root { filter: none; } }
</style></svg>