<svg width="26" height="26" viewBox="0 0 26 26" fill="none" xmlns="http://www.w3.org/2000/svg">
<path d="M7.77366 0.043457H18.2808C22.2835 0.043457 25.5357 3.29663 25.5357 7.30053V17.8108C25.5357 19.7355 24.7714 21.5813 23.4108 22.9423C22.0502 24.3033 20.2049 25.0678 18.2808 25.0678H7.77366C3.77094 25.0678 0.518738 21.8147 0.518738 17.8108V7.30053C0.518738 5.37583 1.28309 3.52997 2.64366 2.169C4.00422 0.808039 5.84953 0.043457 7.77366 0.043457ZM7.52349 2.5459C6.32921 2.5459 5.18384 3.02046 4.33935 3.8652C3.49486 4.70994 3.02044 5.85565 3.02044 7.05029V18.061C3.02044 20.5509 5.0343 22.5654 7.52349 22.5654H18.531C19.7252 22.5654 20.8706 22.0908 21.7151 21.2461C22.5596 20.4014 23.034 19.2557 23.034 18.061V7.05029C23.034 4.56036 21.0201 2.5459 18.531 2.5459H7.52349ZM19.5942 4.42273C20.0089 4.42273 20.4066 4.58751 20.6998 4.88082C20.993 5.17413 21.1577 5.57194 21.1577 5.98675C21.1577 6.40155 20.993 6.79937 20.6998 7.09268C20.4066 7.38599 20.0089 7.55077 19.5942 7.55077C19.1795 7.55077 18.7818 7.38599 18.4886 7.09268C18.1953 6.79937 18.0306 6.40155 18.0306 5.98675C18.0306 5.57194 18.1953 5.17413 18.4886 4.88082C18.7818 4.58751 19.1795 4.42273 19.5942 4.42273ZM13.0272 6.29955C14.686 6.29955 16.2767 6.95868 17.4496 8.13192C18.6225 9.30517 19.2815 10.8964 19.2815 12.5557C19.2815 14.2149 18.6225 15.8061 17.4496 16.9794C16.2767 18.1526 14.686 18.8118 13.0272 18.8118C11.3685 18.8118 9.7777 18.1526 8.60481 16.9794C7.43191 15.8061 6.77298 14.2149 6.77298 12.5557C6.77298 10.8964 7.43191 9.30517 8.60481 8.13192C9.7777 6.95868 11.3685 6.29955 13.0272 6.29955ZM13.0272 8.80199C12.032 8.80199 11.0775 9.19747 10.3738 9.90141C9.67003 10.6054 9.27468 11.5601 9.27468 12.5557C9.27468 13.5512 9.67003 14.5059 10.3738 15.2099C11.0775 15.9138 12.032 16.3093 13.0272 16.3093C14.0225 16.3093 14.9769 15.9138 15.6807 15.2099C16.3844 14.5059 16.7798 13.5512 16.7798 12.5557C16.7798 11.5601 16.3844 10.6054 15.6807 9.90141C14.9769 9.19747 14.0225 8.80199 13.0272 8.80199Z" fill="white"/>
</svg>
