<svg width="582" height="188" viewBox="0 0 582 188" fill="none" xmlns="http://www.w3.org/2000/svg">
<path d="M159.906 187.66C154.186 187.66 148.686 186.743 143.406 184.91C138.199 183.003 134.166 180.583 131.306 177.65L134.496 171.38C137.209 174.02 140.839 176.257 145.386 178.09C150.006 179.85 154.846 180.73 159.906 180.73C164.746 180.73 168.669 180.143 171.676 178.97C174.756 177.723 176.992 176.073 178.386 174.02C179.852 171.967 180.586 169.693 180.586 167.2C180.586 164.193 179.706 161.773 177.946 159.94C176.259 158.107 174.022 156.677 171.236 155.65C168.449 154.55 165.369 153.597 161.996 152.79C158.622 151.983 155.249 151.14 151.876 150.26C148.502 149.307 145.386 148.06 142.526 146.52C139.739 144.98 137.466 142.963 135.706 140.47C134.019 137.903 133.176 134.567 133.176 130.46C133.176 126.647 134.166 123.163 136.146 120.01C138.199 116.783 141.316 114.217 145.496 112.31C149.676 110.33 155.029 109.34 161.556 109.34C165.882 109.34 170.172 109.963 174.426 111.21C178.679 112.383 182.346 114.033 185.426 116.16L182.676 122.65C179.376 120.45 175.856 118.837 172.116 117.81C168.449 116.783 164.892 116.27 161.446 116.27C156.826 116.27 153.012 116.893 150.006 118.14C146.999 119.387 144.762 121.073 143.296 123.2C141.902 125.253 141.206 127.6 141.206 130.24C141.206 133.247 142.049 135.667 143.736 137.5C145.496 139.333 147.769 140.763 150.556 141.79C153.416 142.817 156.532 143.733 159.906 144.54C163.279 145.347 166.616 146.227 169.916 147.18C173.289 148.133 176.369 149.38 179.156 150.92C182.016 152.387 184.289 154.367 185.976 156.86C187.736 159.353 188.616 162.617 188.616 166.65C188.616 170.39 187.589 173.873 185.536 177.1C183.482 180.253 180.329 182.82 176.076 184.8C171.896 186.707 166.506 187.66 159.906 187.66ZM220.237 187V117.04H193.177V110H255.437V117.04H228.377V187H220.237ZM297.957 187.66C288.131 187.66 280.394 184.837 274.747 179.19C269.101 173.543 266.277 165.183 266.277 154.11V110H274.417V153.78C274.417 162.873 276.471 169.583 280.577 173.91C284.684 178.237 290.477 180.4 297.957 180.4C305.511 180.4 311.341 178.237 315.447 173.91C319.554 169.583 321.607 162.873 321.607 153.78V110H329.527V154.11C329.527 165.183 326.704 173.543 321.057 179.19C315.484 184.837 307.784 187.66 297.957 187.66ZM354.057 187V110H385.407C393.62 110 400.807 111.65 406.967 114.95C413.2 118.177 418.04 122.687 421.487 128.48C424.933 134.273 426.657 140.947 426.657 148.5C426.657 156.053 424.933 162.727 421.487 168.52C418.04 174.313 413.2 178.86 406.967 182.16C400.807 185.387 393.62 187 385.407 187H354.057ZM362.197 179.96H384.967C391.787 179.96 397.69 178.64 402.677 176C407.737 173.287 411.66 169.583 414.447 164.89C417.233 160.123 418.627 154.66 418.627 148.5C418.627 142.267 417.233 136.803 414.447 132.11C411.66 127.417 407.737 123.75 402.677 121.11C397.69 118.397 391.787 117.04 384.967 117.04H362.197V179.96ZM444.936 187V110H453.076V187H444.936ZM511.789 187.66C505.996 187.66 500.606 186.707 495.619 184.8C490.706 182.82 486.416 180.07 482.749 176.55C479.156 172.957 476.332 168.813 474.279 164.12C472.299 159.353 471.309 154.147 471.309 148.5C471.309 142.853 472.299 137.683 474.279 132.99C476.332 128.223 479.156 124.08 482.749 120.56C486.416 116.967 490.706 114.217 495.619 112.31C500.532 110.33 505.922 109.34 511.789 109.34C517.582 109.34 522.936 110.33 527.849 112.31C532.762 114.217 537.016 116.93 540.609 120.45C544.276 123.97 547.099 128.113 549.079 132.88C551.132 137.647 552.159 142.853 552.159 148.5C552.159 154.147 551.132 159.353 549.079 164.12C547.099 168.887 544.276 173.03 540.609 176.55C537.016 180.07 532.762 182.82 527.849 184.8C522.936 186.707 517.582 187.66 511.789 187.66ZM511.789 180.4C516.409 180.4 520.662 179.63 524.549 178.09C528.509 176.477 531.919 174.24 534.779 171.38C537.712 168.447 539.986 165.073 541.599 161.26C543.212 157.373 544.019 153.12 544.019 148.5C544.019 143.88 543.212 139.663 541.599 135.85C539.986 131.963 537.712 128.59 534.779 125.73C531.919 122.797 528.509 120.56 524.549 119.02C520.662 117.407 516.409 116.6 511.789 116.6C507.169 116.6 502.879 117.407 498.919 119.02C494.959 120.56 491.512 122.797 488.579 125.73C485.719 128.59 483.446 131.963 481.759 135.85C480.146 139.663 479.339 143.88 479.339 148.5C479.339 153.047 480.146 157.263 481.759 161.15C483.446 165.037 485.719 168.447 488.579 171.38C491.512 174.24 494.959 176.477 498.919 178.09C502.879 179.63 507.169 180.4 511.789 180.4Z" fill="white"/>
<path d="M21.9434 99H6.08398C5.7194 99 5.53711 98.7721 5.53711 98.3164L5.67383 2.13477C5.67383 1.77018 5.90169 1.58789 6.35742 1.58789H21.9434C22.3991 1.58789 22.627 1.77018 22.627 2.13477L22.4902 40.2109H43.4766V2.13477C43.4766 1.77018 43.6589 1.58789 44.0234 1.58789H59.6094C60.0651 1.58789 60.293 1.77018 60.293 2.13477L60.5664 98.3164C60.5664 98.7721 60.3385 99 59.8828 99H44.1602C43.7044 99 43.4766 98.7721 43.4766 98.3164V57.1641H22.4902V98.3164C22.4902 98.7721 22.3079 99 21.9434 99ZM97.8906 100.367C92.9232 100.367 88.3431 99.0911 84.1504 96.5391C80.0033 93.987 76.6536 90.5918 74.1016 86.3535C71.5951 82.0697 70.3418 77.3757 70.3418 72.2715L70.4785 27.9062C70.4785 22.7109 71.7318 18.0397 74.2383 13.8926C76.6992 9.69987 80.026 6.35026 84.2188 3.84375C88.4115 1.29167 92.9688 0.015625 97.8906 0.015625C102.995 0.015625 107.575 1.26888 111.631 3.77539C115.732 6.2819 119.014 9.6543 121.475 13.8926C123.981 18.0853 125.234 22.7565 125.234 27.9062L125.371 72.2715C125.371 77.3757 124.141 82.0469 121.68 86.2852C119.173 90.569 115.846 93.987 111.699 96.5391C107.552 99.0911 102.949 100.367 97.8906 100.367ZM97.8906 83.4824C100.716 83.4824 103.177 82.3431 105.273 80.0645C107.37 77.7402 108.418 75.1426 108.418 72.2715L108.281 27.9062C108.281 24.8073 107.301 22.1868 105.342 20.0449C103.382 17.903 100.898 16.832 97.8906 16.832C95.0195 16.832 92.5586 17.8802 90.5078 19.9766C88.457 22.0729 87.4316 24.7161 87.4316 27.9062V72.2715C87.4316 75.3249 88.457 77.9681 90.5078 80.2012C92.5586 82.3887 95.0195 83.4824 97.8906 83.4824ZM152.373 99H136.514C136.149 99 135.967 98.7721 135.967 98.3164L136.24 2.13477C136.24 1.77018 136.423 1.58789 136.787 1.58789H165.088C170.146 1.58789 174.795 2.81836 179.033 5.2793C183.271 7.74023 186.644 11.0443 189.15 15.1914C191.702 19.3385 192.979 24.0326 192.979 29.2734C192.979 32.6914 192.454 35.7904 191.406 38.5703C190.358 41.3503 189.128 43.6973 187.715 45.6113C186.348 47.5254 185.094 48.9382 183.955 49.8496C189.014 55.4551 191.543 62.0404 191.543 69.6055L191.68 98.3164C191.68 98.7721 191.452 99 190.996 99H175.137C174.772 99 174.59 98.8633 174.59 98.5898V69.6055C174.59 66.2331 173.405 63.3164 171.035 60.8555C168.665 58.3945 165.749 57.1641 162.285 57.1641H153.057L152.92 98.3164C152.92 98.7721 152.738 99 152.373 99ZM165.088 18.3359H153.057V40.3477H165.088C167.959 40.3477 170.511 39.2767 172.744 37.1348C175.023 34.9928 176.162 32.3724 176.162 29.2734C176.162 26.3112 175.068 23.7591 172.881 21.6172C170.693 19.4297 168.096 18.3359 165.088 18.3359ZM220.049 99H204.189C203.734 99 203.506 98.7721 203.506 98.3164L203.643 2.13477C203.643 1.77018 203.825 1.58789 204.189 1.58789H219.912C220.277 1.58789 220.459 1.77018 220.459 2.13477L220.596 98.3164C220.596 98.7721 220.413 99 220.049 99ZM281.367 99H229.141C228.685 99 228.457 98.7721 228.457 98.3164L228.594 83.0723L262.91 17.5156H230.439C230.029 17.5156 229.824 17.3333 229.824 16.9688V2.27148C229.824 1.81576 230.029 1.58789 230.439 1.58789H281.094C281.549 1.58789 281.777 1.81576 281.777 2.27148V17.3789L247.666 82.5938H281.367C281.732 82.5938 281.914 82.8444 281.914 83.3457L282.051 98.3164C282.051 98.7721 281.823 99 281.367 99ZM316.777 100.367C311.81 100.367 307.23 99.0911 303.037 96.5391C298.89 93.987 295.54 90.5918 292.988 86.3535C290.482 82.0697 289.229 77.3757 289.229 72.2715L289.365 27.9062C289.365 22.7109 290.618 18.0397 293.125 13.8926C295.586 9.69987 298.913 6.35026 303.105 3.84375C307.298 1.29167 311.855 0.015625 316.777 0.015625C321.882 0.015625 326.462 1.26888 330.518 3.77539C334.619 6.2819 337.9 9.6543 340.361 13.8926C342.868 18.0853 344.121 22.7565 344.121 27.9062L344.258 72.2715C344.258 77.3757 343.027 82.0469 340.566 86.2852C338.06 90.569 334.733 93.987 330.586 96.5391C326.439 99.0911 321.836 100.367 316.777 100.367ZM316.777 83.4824C319.603 83.4824 322.064 82.3431 324.16 80.0645C326.257 77.7402 327.305 75.1426 327.305 72.2715L327.168 27.9062C327.168 24.8073 326.188 22.1868 324.229 20.0449C322.269 17.903 319.785 16.832 316.777 16.832C313.906 16.832 311.445 17.8802 309.395 19.9766C307.344 22.0729 306.318 24.7161 306.318 27.9062V72.2715C306.318 75.3249 307.344 77.9681 309.395 80.2012C311.445 82.3887 313.906 83.4824 316.777 83.4824ZM370.098 99H356.084C355.355 99 354.99 98.681 354.99 98.043L354.854 2.68164C354.854 1.95247 355.218 1.58789 355.947 1.58789H368.594L392.246 56.7539L391.562 2.68164C391.562 1.95247 391.973 1.58789 392.793 1.58789H406.67C407.217 1.58789 407.49 1.95247 407.49 2.68164L407.627 98.1797C407.627 98.7266 407.399 99 406.943 99H394.639L370.371 47.457L371.396 97.9062C371.396 98.6354 370.964 99 370.098 99Z" fill="white"/>
</svg>
