<svg width="21" height="22" viewBox="0 0 21 22" fill="none" xmlns="http://www.w3.org/2000/svg">
<path d="M3.13113 0.539961L10.5 8.25941L17.8307 0.579958C17.9926 0.399406 18.1877 0.254971 18.4042 0.155313C18.6207 0.0556557 18.8542 0.00282849 19.0907 0C19.597 0 20.0825 0.210698 20.4405 0.585744C20.7986 0.96079 20.9997 1.46946 20.9997 1.99986C21.0041 2.24504 20.9607 2.4886 20.8721 2.71557C20.7834 2.94254 20.6515 3.14814 20.4843 3.31976L13.0581 10.9992L20.4843 18.7787C20.7989 19.1011 20.9834 19.5378 20.9997 19.9986C20.9997 20.529 20.7986 21.0376 20.4405 21.4127C20.0825 21.7877 19.597 21.9984 19.0907 21.9984C18.8474 22.009 18.6046 21.9665 18.3779 21.8735C18.1511 21.7805 17.9453 21.6392 17.7734 21.4585L10.5 13.739L3.15022 21.4385C2.98891 21.613 2.79621 21.7523 2.58324 21.8484C2.37026 21.9445 2.14123 21.9955 1.90935 21.9984C1.40304 21.9984 0.917467 21.7877 0.559454 21.4127C0.20144 21.0376 0.000310613 20.529 0.000310613 19.9986C-0.00414029 19.7534 0.0392843 19.5098 0.12792 19.2829C0.216555 19.0559 0.348532 18.8503 0.51575 18.6787L7.94189 10.9992L0.51575 3.21977C0.201112 2.89731 0.016613 2.46065 0.000310613 1.99986C0.000310613 1.46946 0.20144 0.96079 0.559454 0.585744C0.917467 0.210698 1.40304 0 1.90935 0C2.36751 0.00599957 2.80659 0.199986 3.13113 0.539961Z" fill="white"/>
</svg>
